<svg xmlns="http://www.w3.org/2000/svg" viewBox="0 0 1440 960"><rect width="1440" height="960" fill="#f6f4ee"/><path id="insurance-deep-0" d="M0 220L105 310L165 660L0 720ZM1440 225L1334 320L1275 650L1440 720Z" fill="#81938b" stroke="none" stroke-width="1.6"/><path id="insurance-mid-1" d="M0 590L380 638L750 615L1110 645L1440 568V960H0Z" fill="#c4cec3" stroke="none" stroke-width="1.6"/><path id="insurance-light-2" d="M0 220L105 310L155 658L0 708ZM1440 225L1334 320L1285 658L1440 708Z" fill="#e5e5da" stroke="none" stroke-width="1.6"/><path id="insurance-paper-3" d="M155 658L340 700L700 680L1120 702L1285 658L1440 820L1050 880L720 922L355 890L0 823Z" fill="#f6f4ee" stroke="none" stroke-width="1.6"/><path id="insurance-fold-line-4" d="M0 708L340 700L700 680L1120 702L1440 708M0 823L355 890L720 922L1050 880L1440 820M105 310L155 658M1334 320L1285 658" fill="none" stroke="#a1aea2" stroke-width="1.6"/><path id="insurance-light-5" d="M0 910L355 890L195 960H0ZM1440 910L1050 880L1245 960H1440Z" fill="#e5e5da" stroke="none" stroke-width="1.6"/></svg>